<svg version="1.1" viewBox="0.0 0.0 659.5354330708661 146.9763779527559" fill="none" stroke="none" stroke-linecap="square" stroke-miterlimit="10" xmlns:xlink="http://www.w3.org/1999/xlink" xmlns="http://www.w3.org/2000/svg"><clipPath id="p.0"><path d="m0 0l659.53546 0l0 146.97638l-659.53546 0l0 -146.97638z" clip-rule="nonzero"/></clipPath><g clip-path="url(#p.0)"><path fill="#ffffff" d="m0 0l659.53546 0l0 146.97638l-659.53546 0z" fill-rule="evenodd"/><path fill="#e2f8ff" d="m26.973753 113.7664l0 0c0 -26.970627 42.69159 -48.83465 95.35433 -48.83465l0 0c52.662743 0 95.35433 21.864021 95.35433 48.83465l0 0c0 26.970627 -42.69159 48.83464 -95.35433 48.83464l0 0c-52.662743 0 -95.35433 -21.864014 -95.35433 -48.83464z" fill-rule="evenodd"/><path fill="#e2f8ff" d="m154.59842 93.07612l0 0c0 -20.934639 19.741776 -37.905514 44.094498 -37.905514l0 0c24.352707 0 44.094482 16.970875 44.094482 37.905514l0 0c0 20.934631 -19.741776 37.90551 -44.094482 37.90551l0 0c-24.352722 0 -44.094498 -16.970879 -44.094498 -37.90551z" fill-rule="evenodd"/><path fill="#e2f8ff" d="m205.94751 91.91076l0 0c0 -48.705425 60.72711 -88.18897 135.63779 -88.18897l0 0c74.910706 0 135.63779 39.483547 135.63779 88.18897l0 0c0 48.70542 -60.72708 88.18897 -135.63779 88.18897l0 0c-74.910675 0 -135.63779 -39.48355 -135.63779 -88.18897z" fill-rule="evenodd"/><path fill="#e2f8ff" d="m444.6509 138.23885l0 0c0 -40.48639 35.859528 -73.30709 80.09451 -73.30709l0 0c44.234924 0 80.09448 32.8207 80.09448 73.30709l0 0c0 40.48639 -35.85956 73.30708 -80.09448 73.30708l0 0c-44.234985 0 -80.09451 -32.820694 -80.09451 -73.30708z" fill-rule="evenodd"/><path fill="#e2f8ff" d="m573.95276 138.23885l0 0c0 -13.307022 12.994324 -24.09449 29.02362 -24.09449l0 0c16.029297 0 29.02362 10.787468 29.02362 24.09449l0 0c0 13.307022 -12.994324 24.094482 -29.02362 24.094482l0 0c-16.029297 0 -29.02362 -10.78746 -29.02362 -24.094482z" fill-rule="evenodd"/><path fill="#000000" fill-opacity="0.0" d="m5.5800524 130.98163l636.28345 0" fill-rule="evenodd"/><path stroke="#f6b26b" stroke-width="8.0" stroke-linejoin="round" stroke-linecap="butt" d="m5.5800524 130.98163l636.28345 0" fill-rule="evenodd"/><path fill="#ffffff" d="m0 132.83989l657.6693 0l0 83.71654l-657.6693 0z" fill-rule="evenodd"/><path fill="#000000" fill-opacity="0.0" d="m11.349081 136.75066l636.2835 0" fill-rule="evenodd"/><path stroke="#e69138" stroke-width="4.0" stroke-linejoin="round" stroke-linecap="butt" d="m11.349081 136.75066l636.2835 0" fill-rule="evenodd"/><path fill="#93c47d" d="m327.3626 135.47958c1.7447205 2.2895203 22.409058 -2.74263 30.613281 -7.2690125c8.204193 -4.5263977 20.35669 -17.5998 18.611969 -19.889328c-1.7447205 -2.2895355 -20.876099 1.6257248 -29.080292 6.1521072c-8.204224 4.52639 -21.889679 18.716698 -20.144958 21.006233z" fill-rule="evenodd"/><path stroke="#38761d" stroke-width="1.0" stroke-linejoin="round" stroke-linecap="butt" d="m327.3626 135.47958c1.7447205 2.2895203 22.409058 -2.74263 30.613281 -7.2690125c8.204193 -4.5263977 20.35669 -17.5998 18.611969 -19.889328c-1.7447205 -2.2895355 -20.876099 1.6257248 -29.080292 6.1521072c-8.204224 4.52639 -21.889679 18.716698 -20.144958 21.006233z" fill-rule="evenodd"/><path fill="#93c47d" d="m278.67874 109.923386c-0.86395264 2.795189 15.500519 16.923569 24.089417 21.040283c8.588898 4.1167145 26.580048 6.4552 27.444 3.6600037c0.86395264 -2.7951965 -13.671387 -16.31443 -22.260284 -20.431145c-8.588898 -4.1167145 -28.40918 -7.064331 -29.273132 -4.269142z" fill-rule="evenodd"/><path stroke="#38761d" stroke-width="1.0" stroke-linejoin="round" stroke-linecap="butt" d="m278.67874 109.923386c-0.86395264 2.795189 15.500519 16.923569 24.089417 21.040283c8.588898 4.1167145 26.580048 6.4552 27.444 3.6600037c0.86395264 -2.7951965 -13.671387 -16.31443 -22.260284 -20.431145c-8.588898 -4.1167145 -28.40918 -7.064331 -29.273132 -4.269142z" fill-rule="evenodd"/><path fill="#93c47d" d="m330.50955 136.6951c1.7631531 -0.93026733 0.68569946 -15.618561 -1.4692078 -21.738808c-2.1549072 -6.1202545 -9.697144 -15.912956 -11.460297 -14.982681c-1.7631531 0.93026733 -1.2735596 14.444046 0.8813782 20.5643c2.1549072 6.120247 10.284973 17.087456 12.048126 16.157188z" fill-rule="evenodd"/><path stroke="#38761d" stroke-width="1.0" stroke-linejoin="round" stroke-linecap="butt" d="m330.50955 136.6951c1.7631531 -0.93026733 0.68569946 -15.618561 -1.4692078 -21.738808c-2.1549072 -6.1202545 -9.697144 -15.912956 -11.460297 -14.982681c-1.7631531 0.93026733 -1.2735596 14.444046 0.8813782 20.5643c2.1549072 6.120247 10.284973 17.087456 12.048126 16.157188z" fill-rule="evenodd"/></g></svg>